<svg width="140" height="51" viewBox="0 0 140 51" fill="none" xmlns="http://www.w3.org/2000/svg">
<path fill-rule="evenodd" clip-rule="evenodd" d="M0 0.940685H4.25568V0.960989L23.6235 27.007V0.965713H27.8792V34.1338H23.6235L4.25568 8.0878V34.1338H0V0.940685ZM74.5411 1.50468e-05L86.8623 24.7068L99.1836 1.50468e-05H103.886L89.2135 29.4215L86.8623 34.1357L84.5111 29.4215L69.8386 1.50468e-05H74.5411ZM133.971 31.7774C133.756 32.5939 133.507 33.3815 133.228 34.1357H137.672C138.653 31.0658 139.203 27.6383 139.203 24.0221C139.203 10.8701 131.95 0.208264 123.004 0.208264C114.058 0.208264 106.806 10.8701 106.806 24.0221C106.806 27.6383 107.355 31.0658 108.336 34.1357H112.781C112.058 32.1793 111.541 29.7364 111.273 27.3602H134.739C134.574 28.9337 134.312 30.4863 133.971 31.7774ZM111.075 23.1045C111.367 12.7293 116.596 4.46442 123.004 4.46442C129.325 4.46442 134.499 12.5064 134.919 22.6824C134.925 22.8207 134.93 22.9619 134.932 23.1045H111.075ZM62.2009 31.7774C61.9856 32.5939 61.7362 33.3815 61.4571 34.1357H65.9017C66.8825 31.0658 67.4322 27.6383 67.4322 24.0221C67.4322 10.8701 60.1798 0.208264 51.234 0.208264C42.2877 0.208264 35.0357 10.8701 35.0357 24.0221C35.0357 27.6383 35.5849 31.0658 36.5657 34.1357H41.0103C40.2873 32.1793 39.7702 29.7364 39.5025 27.3602H62.9683C62.8035 28.9337 62.5414 30.4863 62.2009 31.7774ZM39.3046 23.1045C39.5969 12.7293 44.8259 4.46442 51.234 4.46442C57.5547 4.46442 62.7284 12.5064 63.1486 22.6824C63.1543 22.8207 63.159 22.9619 63.1619 23.1045H39.3046Z" fill="white"/>
<path d="M23.7888 48.3359V41.4672H26.1902C26.6686 41.4672 27.0633 41.55 27.3741 41.7154C27.6849 41.8786 27.9163 42.0989 28.0683 42.3761C28.2204 42.6511 28.2964 42.9563 28.2964 43.2917C28.2964 43.5869 28.2438 43.8306 28.1388 44.0229C28.0359 44.2152 27.8995 44.3672 27.7296 44.479C27.5619 44.5908 27.3797 44.6735 27.1829 44.7272V44.7943C27.3931 44.8077 27.6044 44.8815 27.8168 45.0156C28.0292 45.1498 28.2069 45.3421 28.35 45.5925C28.4931 45.8429 28.5647 46.1492 28.5647 46.5114C28.5647 46.8558 28.4864 47.1654 28.3299 47.4405C28.1734 47.7155 27.9263 47.9335 27.5887 48.0945C27.2511 48.2554 26.8117 48.3359 26.2706 48.3359H23.7888ZM24.6205 47.5981H26.2706C26.814 47.5981 27.1997 47.493 27.4277 47.2828C27.658 47.0704 27.7732 46.8133 27.7732 46.5114C27.7732 46.2789 27.7139 46.0643 27.5954 45.8675C27.4769 45.6685 27.3081 45.5097 27.089 45.3912C26.8699 45.2705 26.6105 45.2101 26.3109 45.2101H24.6205V47.5981ZM24.6205 44.4857H26.1633C26.4137 44.4857 26.6396 44.4365 26.8408 44.3381C27.0443 44.2398 27.2053 44.1011 27.3238 43.9223C27.4445 43.7434 27.5049 43.5332 27.5049 43.2917C27.5049 42.9899 27.3998 42.7339 27.1896 42.5237C26.9794 42.3113 26.6463 42.2051 26.1902 42.2051H24.6205V44.4857ZM35.7269 44.9016C35.7269 45.626 35.5961 46.2521 35.3345 46.7797C35.0729 47.3074 34.714 47.7144 34.2579 48.0006C33.8018 48.2867 33.2808 48.4298 32.695 48.4298C32.1092 48.4298 31.5882 48.2867 31.1321 48.0006C30.676 47.7144 30.3171 47.3074 30.0555 46.7797C29.7939 46.2521 29.6631 45.626 29.6631 44.9016C29.6631 44.1771 29.7939 43.5511 30.0555 43.0234C30.3171 42.4957 30.676 42.0888 31.1321 41.8026C31.5882 41.5164 32.1092 41.3733 32.695 41.3733C33.2808 41.3733 33.8018 41.5164 34.2579 41.8026C34.714 42.0888 35.0729 42.4957 35.3345 43.0234C35.5961 43.5511 35.7269 44.1771 35.7269 44.9016ZM34.9219 44.9016C34.9219 44.3068 34.8224 43.8049 34.6234 43.3957C34.4267 42.9865 34.1595 42.6768 33.8219 42.4667C33.4865 42.2565 33.1109 42.1514 32.695 42.1514C32.2791 42.1514 31.9023 42.2565 31.5647 42.4667C31.2293 42.6768 30.9621 42.9865 30.7632 43.3957C30.5664 43.8049 30.468 44.3068 30.468 44.9016C30.468 45.4963 30.5664 45.9983 30.7632 46.4075C30.9621 46.8166 31.2293 47.1263 31.5647 47.3365C31.9023 47.5467 32.2791 47.6517 32.695 47.6517C33.1109 47.6517 33.4865 47.5467 33.8219 47.3365C34.1595 47.1263 34.4267 46.8166 34.6234 46.4075C34.8224 45.9983 34.9219 45.4963 34.9219 44.9016ZM41.633 41.4672H42.4648V46.0151C42.4648 46.4846 42.3541 46.9038 42.1328 47.2728C41.9136 47.6395 41.604 47.929 41.2037 48.1414C40.8035 48.3516 40.334 48.4567 39.7951 48.4567C39.2563 48.4567 38.7867 48.3516 38.3865 48.1414C37.9863 47.929 37.6755 47.6395 37.4541 47.2728C37.235 46.9038 37.1254 46.4846 37.1254 46.0151V41.4672H37.9572V45.948C37.9572 46.2834 38.031 46.5819 38.1785 46.8435C38.3261 47.1028 38.5363 47.3074 38.8091 47.4572C39.0841 47.6048 39.4128 47.6786 39.7951 47.6786C40.1774 47.6786 40.5061 47.6048 40.7811 47.4572C41.0562 47.3074 41.2663 47.1028 41.4117 46.8435C41.5592 46.5819 41.633 46.2834 41.633 45.948V41.4672ZM43.7502 42.2051V41.4672H48.9017V42.2051H46.7418V48.3359H45.91V42.2051H43.7502ZM51.0171 41.4672V48.3359H50.1854V41.4672H51.0171ZM55.1801 46.1895H56.0924L56.8571 47.1956L57.0583 47.4639L58.1986 48.9799H57.2864L56.5351 47.9737L56.3473 47.7188L55.1801 46.1895ZM58.4803 44.9016C58.4803 45.626 58.3495 46.2521 58.0879 46.7797C57.8263 47.3074 57.4675 47.7144 57.0113 48.0006C56.5552 48.2867 56.0342 48.4298 55.4484 48.4298C54.8626 48.4298 54.3417 48.2867 53.8855 48.0006C53.4294 47.7144 53.0705 47.3074 52.8089 46.7797C52.5473 46.2521 52.4165 45.626 52.4165 44.9016C52.4165 44.1771 52.5473 43.5511 52.8089 43.0234C53.0705 42.4957 53.4294 42.0888 53.8855 41.8026C54.3417 41.5164 54.8626 41.3733 55.4484 41.3733C56.0342 41.3733 56.5552 41.5164 57.0113 41.8026C57.4675 42.0888 57.8263 42.4957 58.0879 43.0234C58.3495 43.5511 58.4803 44.1771 58.4803 44.9016ZM57.6754 44.9016C57.6754 44.3068 57.5759 43.8049 57.3769 43.3957C57.1801 42.9865 56.913 42.6768 56.5753 42.4667C56.2399 42.2565 55.8643 42.1514 55.4484 42.1514C55.0326 42.1514 54.6558 42.2565 54.3182 42.4667C53.9828 42.6768 53.7156 42.9865 53.5166 43.3957C53.3198 43.8049 53.2215 44.3068 53.2215 44.9016C53.2215 45.4963 53.3198 45.9983 53.5166 46.4075C53.7156 46.8166 53.9828 47.1263 54.3182 47.3365C54.6558 47.5467 55.0326 47.6517 55.4484 47.6517C55.8643 47.6517 56.2399 47.5467 56.5753 47.3365C56.913 47.1263 57.1801 46.8166 57.3769 46.4075C57.5759 45.9983 57.6754 45.4963 57.6754 44.9016ZM64.3865 41.4672H65.2182V46.0151C65.2182 46.4846 65.1076 46.9038 64.8862 47.2728C64.6671 47.6395 64.3574 47.929 63.9572 48.1414C63.557 48.3516 63.0874 48.4567 62.5486 48.4567C62.0097 48.4567 61.5402 48.3516 61.1399 48.1414C60.7397 47.929 60.4289 47.6395 60.2076 47.2728C59.9884 46.9038 59.8789 46.4846 59.8789 46.0151V41.4672H60.7106V45.948C60.7106 46.2834 60.7844 46.5819 60.932 46.8435C61.0796 47.1028 61.2897 47.3074 61.5625 47.4572C61.8375 47.6048 62.1662 47.6786 62.5486 47.6786C62.9309 47.6786 63.2596 47.6048 63.5346 47.4572C63.8096 47.3074 64.0198 47.1028 64.1651 46.8435C64.3127 46.5819 64.3865 46.2834 64.3865 45.948V41.4672ZM66.8792 48.3359V41.4672H71.0246V42.2051H67.711V44.5259H70.81V45.2638H67.711V47.5981H71.0783V48.3359H66.8792ZM75.1801 48.3359V41.4672H77.5009C78.0375 41.4672 78.478 41.5589 78.8224 41.7422C79.1667 41.9233 79.4216 42.1727 79.587 42.4902C79.7525 42.8077 79.8352 43.1687 79.8352 43.5734C79.8352 43.9781 79.7525 44.337 79.587 44.65C79.4216 44.9631 79.1678 45.209 78.8257 45.3879C78.4836 45.5645 78.0465 45.6528 77.5143 45.6528H75.6362V44.9016H77.4875C77.8542 44.9016 78.1493 44.8479 78.3729 44.7406C78.5988 44.6333 78.762 44.4812 78.8626 44.2845C78.9655 44.0855 79.0169 43.8485 79.0169 43.5734C79.0169 43.2984 78.9655 43.0581 78.8626 42.8524C78.7597 42.6467 78.5954 42.4879 78.3696 42.3761C78.1438 42.2621 77.8453 42.2051 77.4741 42.2051H76.0118V48.3359H75.1801ZM78.4132 45.2504L80.1035 48.3359H79.1376L77.4741 45.2504H78.4132ZM81.2212 48.3359V41.4672H85.3666V42.2051H82.053V44.5259H85.1519V45.2638H82.053V47.5981H85.4202V48.3359H81.2212ZM90.6221 43.1844C90.5818 42.8445 90.4186 42.5807 90.1324 42.3929C89.8462 42.2051 89.4952 42.1112 89.0793 42.1112C88.7752 42.1112 88.5092 42.1604 88.2811 42.2587C88.0553 42.3571 87.8786 42.4924 87.7512 42.6646C87.626 42.8367 87.5634 43.0324 87.5634 43.2515C87.5634 43.4348 87.607 43.5925 87.6942 43.7244C87.7836 43.8541 87.8976 43.9625 88.0363 44.0497C88.1749 44.1347 88.3202 44.2051 88.4723 44.261C88.6243 44.3147 88.764 44.3583 88.8915 44.3918L89.5891 44.5796C89.768 44.6266 89.967 44.6914 90.1861 44.7741C90.4074 44.8569 90.6187 44.9698 90.82 45.1129C91.0234 45.2537 91.1911 45.4348 91.323 45.6562C91.455 45.8776 91.5209 46.1492 91.5209 46.4712C91.5209 46.8423 91.4237 47.1777 91.2291 47.4773C91.0368 47.777 90.7551 48.0151 90.384 48.1917C90.015 48.3684 89.5667 48.4567 89.0391 48.4567C88.5472 48.4567 88.1212 48.3773 87.7612 48.2186C87.4035 48.0598 87.1218 47.8384 86.9161 47.5545C86.7126 47.2705 86.5974 46.9407 86.5706 46.5651H87.4292C87.4516 46.8245 87.5388 47.0391 87.6908 47.209C87.8451 47.3767 88.0396 47.5019 88.2744 47.5847C88.5114 47.6652 88.7663 47.7054 89.0391 47.7054C89.3566 47.7054 89.6416 47.654 89.8943 47.5511C90.147 47.446 90.3471 47.3007 90.4946 47.1151C90.6422 46.9273 90.716 46.7082 90.716 46.4578C90.716 46.2297 90.6523 46.0441 90.5248 45.901C90.3974 45.7579 90.2297 45.6417 90.0217 45.5522C89.8138 45.4628 89.5891 45.3845 89.3476 45.3175L88.5024 45.076C87.9658 44.9217 87.541 44.7015 87.228 44.4153C86.9149 44.1291 86.7584 43.7546 86.7584 43.2917C86.7584 42.9071 86.8624 42.5718 87.0703 42.2856C87.2805 41.9971 87.5622 41.7735 87.9155 41.6148C88.271 41.4538 88.6679 41.3733 89.1061 41.3733C89.5489 41.3733 89.9424 41.4527 90.2867 41.6114C90.631 41.768 90.9038 41.9826 91.105 42.2554C91.3085 42.5282 91.4158 42.8378 91.427 43.1844H90.6221ZM98.6839 44.9016C98.6839 45.626 98.5531 46.2521 98.2915 46.7797C98.0299 47.3074 97.6711 47.7144 97.2149 48.0006C96.7588 48.2867 96.2379 48.4298 95.652 48.4298C95.0662 48.4298 94.5453 48.2867 94.0891 48.0006C93.633 47.7144 93.2742 47.3074 93.0126 46.7797C92.751 46.2521 92.6202 45.626 92.6202 44.9016C92.6202 44.1771 92.751 43.5511 93.0126 43.0234C93.2742 42.4957 93.633 42.0888 94.0891 41.8026C94.5453 41.5164 95.0662 41.3733 95.652 41.3733C96.2379 41.3733 96.7588 41.5164 97.2149 41.8026C97.6711 42.0888 98.0299 42.4957 98.2915 43.0234C98.5531 43.5511 98.6839 44.1771 98.6839 44.9016ZM97.879 44.9016C97.879 44.3068 97.7795 43.8049 97.5805 43.3957C97.3838 42.9865 97.1166 42.6768 96.7789 42.4667C96.4436 42.2565 96.0679 42.1514 95.652 42.1514C95.2362 42.1514 94.8594 42.2565 94.5218 42.4667C94.1864 42.6768 93.9192 42.9865 93.7202 43.3957C93.5235 43.8049 93.4251 44.3068 93.4251 44.9016C93.4251 45.4963 93.5235 45.9983 93.7202 46.4075C93.9192 46.8166 94.1864 47.1263 94.5218 47.3365C94.8594 47.5467 95.2362 47.6517 95.652 47.6517C96.0679 47.6517 96.4436 47.5467 96.7789 47.3365C97.1166 47.1263 97.3838 46.8166 97.5805 46.4075C97.7795 45.9983 97.879 45.4963 97.879 44.9016ZM100.083 48.3359V41.4672H102.403C102.94 41.4672 103.38 41.5589 103.725 41.7422C104.069 41.9233 104.324 42.1727 104.489 42.4902C104.655 42.8077 104.738 43.1687 104.738 43.5734C104.738 43.9781 104.655 44.337 104.489 44.65C104.324 44.9631 104.07 45.209 103.728 45.3879C103.386 45.5645 102.949 45.6528 102.417 45.6528H100.539V44.9016H102.39C102.757 44.9016 103.052 44.8479 103.275 44.7406C103.501 44.6333 103.664 44.4812 103.765 44.2845C103.868 44.0855 103.919 43.8485 103.919 43.5734C103.919 43.2984 103.868 43.0581 103.765 42.8524C103.662 42.6467 103.498 42.4879 103.272 42.3761C103.046 42.2621 102.748 42.2051 102.377 42.2051H100.914V48.3359H100.083ZM103.316 45.2504L105.006 48.3359H104.04L102.377 45.2504H103.316ZM105.748 42.2051V41.4672H110.9V42.2051H108.74V48.3359H107.908V42.2051H105.748ZM115.94 43.1844C115.899 42.8445 115.736 42.5807 115.45 42.3929C115.164 42.2051 114.813 42.1112 114.397 42.1112C114.093 42.1112 113.827 42.1604 113.599 42.2587C113.373 42.3571 113.196 42.4924 113.069 42.6646C112.943 42.8367 112.881 43.0324 112.881 43.2515C112.881 43.4348 112.924 43.5925 113.012 43.7244C113.101 43.8541 113.215 43.9625 113.354 44.0497C113.492 44.1347 113.638 44.2051 113.79 44.261C113.942 44.3147 114.082 44.3583 114.209 44.3918L114.907 44.5796C115.085 44.6266 115.284 44.6914 115.504 44.7741C115.725 44.8569 115.936 44.9698 116.137 45.1129C116.341 45.2537 116.509 45.4348 116.641 45.6562C116.772 45.8776 116.838 46.1492 116.838 46.4712C116.838 46.8423 116.741 47.1777 116.547 47.4773C116.354 47.777 116.073 48.0151 115.701 48.1917C115.333 48.3684 114.884 48.4567 114.357 48.4567C113.865 48.4567 113.439 48.3773 113.079 48.2186C112.721 48.0598 112.439 47.8384 112.234 47.5545C112.03 47.2705 111.915 46.9407 111.888 46.5651H112.747C112.769 46.8245 112.856 47.0391 113.008 47.209C113.163 47.3767 113.357 47.5019 113.592 47.5847C113.829 47.6652 114.084 47.7054 114.357 47.7054C114.674 47.7054 114.959 47.654 115.212 47.5511C115.464 47.446 115.665 47.3007 115.812 47.1151C115.96 46.9273 116.033 46.7082 116.033 46.4578C116.033 46.2297 115.97 46.0441 115.842 45.901C115.715 45.7579 115.547 45.6417 115.339 45.5522C115.131 45.4628 114.907 45.3845 114.665 45.3175L113.82 45.076C113.283 44.9217 112.858 44.7015 112.545 44.4153C112.232 44.1291 112.076 43.7546 112.076 43.2917C112.076 42.9071 112.18 42.5718 112.388 42.2856C112.598 41.9971 112.88 41.7735 113.233 41.6148C113.589 41.4538 113.985 41.3733 114.424 41.3733C114.866 41.3733 115.26 41.4527 115.604 41.6114C115.949 41.768 116.221 41.9826 116.423 42.2554C116.626 42.5282 116.733 42.8378 116.745 43.1844H115.94Z" fill="white"/>
</svg>
